<mxfile host="app.diagrams.net" agent="Mozilla/5.0 (Windows NT 10.0; Win64; x64) AppleWebKit/537.36 (KHTML, like Gecko) Chrome/140.0.0.0 Safari/537.36" version="28.2.3">
  <diagram name="Página-1" id="yMRDsBKowSLrql9LwV7K">
    <mxGraphModel dx="1426" dy="1902" grid="1" gridSize="10" guides="1" tooltips="1" connect="1" arrows="1" fold="1" page="1" pageScale="1" pageWidth="827" pageHeight="1169" math="0" shadow="0">
      <root>
        <mxCell id="0" />
        <mxCell id="1" parent="0" />
        <mxCell id="W_0O8zRfIfxBUMQZHktz-5" value="&lt;font style=&quot;font-size: 16px;&quot;&gt;Inicio&lt;/font&gt;" style="strokeWidth=2;html=1;shape=mxgraph.flowchart.terminator;whiteSpace=wrap;" vertex="1" parent="1">
          <mxGeometry x="350" y="-1100" width="156" height="60" as="geometry" />
        </mxCell>
        <mxCell id="W_0O8zRfIfxBUMQZHktz-6" value="" style="endArrow=classic;html=1;rounded=0;" edge="1" parent="1">
          <mxGeometry width="50" height="50" relative="1" as="geometry">
            <mxPoint x="430" y="-1040" as="sourcePoint" />
            <mxPoint x="430" y="-1010" as="targetPoint" />
          </mxGeometry>
        </mxCell>
        <mxCell id="W_0O8zRfIfxBUMQZHktz-22" value="" style="edgeStyle=orthogonalEdgeStyle;rounded=0;orthogonalLoop=1;jettySize=auto;html=1;" edge="1" parent="1" source="W_0O8zRfIfxBUMQZHktz-7" target="W_0O8zRfIfxBUMQZHktz-15">
          <mxGeometry relative="1" as="geometry" />
        </mxCell>
        <mxCell id="W_0O8zRfIfxBUMQZHktz-7" value="&lt;div&gt;&lt;br&gt;&lt;/div&gt;&quot;Ingrese la base y la altura&lt;div&gt;del triangulo&quot;&lt;/div&gt;" style="html=1;strokeWidth=2;shape=manualInput;whiteSpace=wrap;rounded=1;size=26;arcSize=11;" vertex="1" parent="1">
          <mxGeometry x="350" y="-950" width="156" height="70" as="geometry" />
        </mxCell>
        <mxCell id="W_0O8zRfIfxBUMQZHktz-8" value="" style="endArrow=classic;html=1;rounded=0;" edge="1" parent="1">
          <mxGeometry width="50" height="50" relative="1" as="geometry">
            <mxPoint x="428" y="-970" as="sourcePoint" />
            <mxPoint x="427.5" y="-940" as="targetPoint" />
            <Array as="points">
              <mxPoint x="428" y="-950" />
            </Array>
          </mxGeometry>
        </mxCell>
        <mxCell id="W_0O8zRfIfxBUMQZHktz-9" value="Base, Altura, Area" style="shape=parallelogram;perimeter=parallelogramPerimeter;whiteSpace=wrap;html=1;fixedSize=1;" vertex="1" parent="1">
          <mxGeometry x="350" y="-1010" width="160" height="40" as="geometry" />
        </mxCell>
        <mxCell id="W_0O8zRfIfxBUMQZHktz-10" value="" style="endArrow=classic;html=1;rounded=0;" edge="1" parent="1" target="W_0O8zRfIfxBUMQZHktz-15">
          <mxGeometry width="50" height="50" relative="1" as="geometry">
            <mxPoint x="429.5" y="-820" as="sourcePoint" />
            <mxPoint x="429.5" y="-790" as="targetPoint" />
          </mxGeometry>
        </mxCell>
        <mxCell id="W_0O8zRfIfxBUMQZHktz-14" value="Base*Altura/2" style="rounded=0;whiteSpace=wrap;html=1;" vertex="1" parent="1">
          <mxGeometry x="368" y="-850" width="120" height="40" as="geometry" />
        </mxCell>
        <mxCell id="W_0O8zRfIfxBUMQZHktz-15" value="&quot;El área del triangulo es, Area&quot;" style="strokeWidth=2;html=1;shape=mxgraph.flowchart.document2;whiteSpace=wrap;size=0.25;" vertex="1" parent="1">
          <mxGeometry x="358" y="-780" width="140" height="80" as="geometry" />
        </mxCell>
        <mxCell id="W_0O8zRfIfxBUMQZHktz-19" value="&lt;font style=&quot;font-size: 14px;&quot;&gt;Fin&lt;/font&gt;" style="strokeWidth=4;html=1;shape=mxgraph.flowchart.terminator;whiteSpace=wrap;" vertex="1" parent="1">
          <mxGeometry x="363" y="-680" width="130" height="50" as="geometry" />
        </mxCell>
        <mxCell id="W_0O8zRfIfxBUMQZHktz-21" value="" style="endArrow=classic;html=1;rounded=0;" edge="1" parent="1">
          <mxGeometry width="50" height="50" relative="1" as="geometry">
            <mxPoint x="427.5" y="-875" as="sourcePoint" />
            <mxPoint x="427.5" y="-850" as="targetPoint" />
          </mxGeometry>
        </mxCell>
        <mxCell id="W_0O8zRfIfxBUMQZHktz-29" value="" style="endArrow=classic;html=1;rounded=0;" edge="1" parent="1">
          <mxGeometry width="50" height="50" relative="1" as="geometry">
            <mxPoint x="427.5" y="-710" as="sourcePoint" />
            <mxPoint x="427.5" y="-680" as="targetPoint" />
          </mxGeometry>
        </mxCell>
      </root>
    </mxGraphModel>
  </diagram>
</mxfile>
